<?xml version="1.0" encoding="utf-8"?>
<!-- Generator: Adobe Illustrator 15.0.0, SVG Export Plug-In . SVG Version: 6.00 Build 0)  -->
<!DOCTYPE svg PUBLIC "-//W3C//DTD SVG 1.1//EN" "http://www.w3.org/Graphics/SVG/1.1/DTD/svg11.dtd">
<svg version="1.1" id="Layer_1" xmlns="http://www.w3.org/2000/svg" xmlns:xlink="http://www.w3.org/1999/xlink" x="0px" y="0px"
	 width="716px" height="278px" viewBox="0 0 716 278" enable-background="new 0 0 716 278" xml:space="preserve">
<text transform="matrix(1 0 0 1 3.8545 26.0381)"><tspan x="0" y="0" fill="#010101" font-family="'HelveticaNeue'" font-size="16">Re</tspan><tspan x="20.16" y="0" fill="#010101" font-family="'HelveticaNeue'" font-size="16">s</tspan><tspan x="28.48" y="0" fill="#010101" font-family="'HelveticaNeue'" font-size="16">ear</tspan><tspan x="51.903" y="0" fill="#010101" font-family="'HelveticaNeue'" font-size="16">c</tspan><tspan x="60.815" y="0" fill="#010101" font-family="'HelveticaNeue'" font-size="16">h</tspan></text>
<text transform="matrix(1 0 0 1 90.5586 73.894)"><tspan x="0" y="0" fill="#010101" font-family="'HelveticaNeue'" font-size="16">Do</tspan><tspan x="21.056" y="0" fill="#010101" font-family="'HelveticaNeue'" font-size="16">c</tspan><tspan x="29.968" y="0" fill="#010101" font-family="'HelveticaNeue'" font-size="16">umen</tspan><tspan x="71.215" y="0" fill="#010101" font-family="'HelveticaNeue'" font-size="16">t</tspan></text>
<text transform="matrix(1 0 0 1 252.8467 170.2622)"><tspan x="0" y="0" fill="#010101" font-family="'HelveticaNeue'" font-size="16">Q</tspan><tspan x="12.48" y="0" fill="#010101" font-family="'HelveticaNeue'" font-size="16">A</tspan></text>
<text transform="matrix(1 0 0 1 128.8467 122.1182)"><tspan x="0" y="0" fill="#010101" font-family="'HelveticaNeue'" font-size="16">Design</tspan><tspan x="51.312" y="0" fill="#010101" font-family="'HelveticaNeue'" font-size="16"> &amp; </tspan><tspan x="71.247" y="0" fill="#010101" font-family="'HelveticaNeue'" font-size="16">De</tspan><tspan x="91.711" y="0" fill="#010101" font-family="'HelveticaNeue'" font-size="16">v</tspan><tspan x="100.031" y="0" fill="#010101" font-family="'HelveticaNeue'" font-size="16">elop</tspan></text>
<text transform="matrix(1 0 0 1 379.8545 221.7661)"><tspan x="0" y="0" fill="#010101" font-family="'HelveticaNeue'" font-size="16">Main</tspan><tspan x="36.191" y="0" fill="#010101" font-family="'HelveticaNeue'" font-size="16">t</tspan><tspan x="41.552" y="0" fill="#010101" font-family="'HelveticaNeue'" font-size="16">ai</tspan><tspan x="54.303" y="0" fill="#010101" font-family="'HelveticaNeue'" font-size="16">n &amp; Evolve</tspan></text>
<line fill="none" stroke="#ABABAB" stroke-miterlimit="10" x1="3.855" y1="89.568" x2="296.855" y2="89.568"/>
<line fill="none" stroke="#ABABAB" stroke-miterlimit="10" x1="128.855" y1="185.568" x2="683.855" y2="185.568"/>
<line fill="none" stroke="#ABABAB" stroke-miterlimit="10" x1="90.855" y1="136.568" x2="348.855" y2="136.568"/>
<path fill="#231F20" d="M209.998,83.925c6.281,8.246-3.041,17.567-11.287,11.287C192.432,86.966,201.752,77.645,209.998,83.925"/>
<path fill="#ABABAB" d="M299.677,86.747c3.14,4.123-1.521,8.784-5.644,5.644C290.893,88.268,295.554,83.607,299.677,86.747"/>
<path fill="#ABABAB" d="M684.99,182.746c3.139,4.123-1.521,8.785-5.644,5.645C676.205,184.268,680.867,179.607,684.99,182.746"/>
<path fill="#ABABAB" d="M206.677,37.747c3.14,4.123-1.521,8.784-5.644,5.644C197.893,39.268,202.554,34.607,206.677,37.747"/>
<path fill="#231F20" d="M354.559,136.568c0,4.255-3.449,7.704-7.704,7.704s-7.704-3.449-7.704-7.704
	c0-4.255,3.449-7.704,7.704-7.704S354.559,132.313,354.559,136.568"/>
<path fill="#231F20" d="M495.559,185.568c0,4.256-3.449,7.704-7.704,7.704s-7.704-3.448-7.704-7.704
	c0-4.255,3.449-7.703,7.704-7.703S495.559,181.313,495.559,185.568"/>
<polyline fill="none" stroke="#ABABAB" stroke-miterlimit="10" points="38.855,40.568 3.855,40.568 203.855,40.568 "/>
<path fill="#231F20" d="M90.559,40.568c0,4.255-3.449,7.704-7.703,7.704c-4.256,0-7.705-3.449-7.705-7.704
	c0-4.255,3.449-7.704,7.705-7.704C87.109,32.865,90.559,36.313,90.559,40.568"/>
<line fill="none" stroke="#231F20" stroke-width="4" stroke-linecap="round" stroke-linejoin="round" stroke-miterlimit="10" x1="3.855" y1="41.068" x2="80.855" y2="41.068"/>
<line fill="none" stroke="#231F20" stroke-width="4" stroke-linecap="round" stroke-linejoin="round" stroke-miterlimit="10" x1="90.855" y1="90.068" x2="203.855" y2="90.068"/>
<line fill="none" stroke="#231F20" stroke-width="4" stroke-linecap="round" stroke-linejoin="round" stroke-miterlimit="10" x1="128.855" y1="137.068" x2="346.855" y2="137.068"/>
<line fill="none" stroke="#231F20" stroke-width="4" stroke-linecap="round" stroke-linejoin="round" stroke-miterlimit="10" x1="252.855" y1="186.068" x2="487.855" y2="186.068"/>
<line fill="none" stroke="#ABABAB" stroke-miterlimit="10" x1="275.855" y1="235.568" x2="683.855" y2="235.568"/>
<line fill="none" stroke="#231F20" stroke-width="4" stroke-linecap="round" stroke-linejoin="round" stroke-miterlimit="10" x1="382.355" y1="236.068" x2="679.73" y2="236.068"/>
<polyline fill="none" stroke="#231F20" stroke-width="4" stroke-linecap="round" stroke-linejoin="round" stroke-miterlimit="10" points="
	669.576,248.199 682.168,236.035 669.994,223.861 "/>
</svg>
